<svg width="24" height="24" viewBox="0 0 24 24" fill="none" xmlns="http://www.w3.org/2000/svg">
<path fill-rule="evenodd" clip-rule="evenodd" d="M22 0H2V24H16L22 18V0ZM16 18H20.36L16 22.385V18ZM13 19H5V20H13V19ZM13 16H5V17H13V16ZM19 14V13H5V14H19ZM11.941 9.032C10.794 8.767 9.727 8.535 10.244 7.559C11.817 4.589 10.661 3 9 3C7.306 3 6.179 4.65 7.756 7.559C8.288 8.541 7.181 8.773 6.059 9.032C5.035 9.269 4.997 9.777 5 10.667L5.001 11H12.998L12.999 10.677C13.003 9.781 12.969 9.27 11.941 9.032ZM19 10H15V11H19V10ZM19 8V7H15V8H19ZM19 4H15V5H19V4Z" fill="#FFF3E9"/>
</svg>
